<svg width="20" height="20" viewBox="0 0 20 20" fill="none" xmlns="http://www.w3.org/2000/svg">
<path fill-rule="evenodd" clip-rule="evenodd" d="M4.58337 5.83334C5.27373 5.83334 5.83337 5.27369 5.83337 4.58334C5.83337 3.89298 5.27373 3.33334 4.58337 3.33334C3.89302 3.33334 3.33337 3.89298 3.33337 4.58334C3.33337 5.27369 3.89302 5.83334 4.58337 5.83334ZM5.83337 10C5.83337 10.6903 5.27373 11.25 4.58337 11.25C3.89302 11.25 3.33337 10.6903 3.33337 10C3.33337 9.30967 3.89302 8.75 4.58337 8.75C5.27373 8.75 5.83337 9.30967 5.83337 10ZM11.25 10C11.25 10.6903 10.6904 11.25 10 11.25C9.30971 11.25 8.75004 10.6903 8.75004 10C8.75004 9.30967 9.30971 8.75 10 8.75C10.6904 8.75 11.25 9.30967 11.25 10ZM15.4167 11.25C16.107 11.25 16.6667 10.6903 16.6667 10C16.6667 9.30967 16.107 8.75 15.4167 8.75C14.7264 8.75 14.1667 9.30967 14.1667 10C14.1667 10.6903 14.7264 11.25 15.4167 11.25ZM5.83337 15.4167C5.83337 16.107 5.27373 16.6667 4.58337 16.6667C3.89302 16.6667 3.33337 16.107 3.33337 15.4167C3.33337 14.7263 3.89302 14.1667 4.58337 14.1667C5.27373 14.1667 5.83337 14.7263 5.83337 15.4167ZM10 16.6667C10.6904 16.6667 11.25 16.107 11.25 15.4167C11.25 14.7263 10.6904 14.1667 10 14.1667C9.30971 14.1667 8.75004 14.7263 8.75004 15.4167C8.75004 16.107 9.30971 16.6667 10 16.6667ZM16.6667 15.4167C16.6667 16.107 16.107 16.6667 15.4167 16.6667C14.7264 16.6667 14.1667 16.107 14.1667 15.4167C14.1667 14.7263 14.7264 14.1667 15.4167 14.1667C16.107 14.1667 16.6667 14.7263 16.6667 15.4167ZM11.25 4.58334C11.25 5.27369 10.6904 5.83334 10 5.83334C9.30971 5.83334 8.75004 5.27369 8.75004 4.58334C8.75004 3.89298 9.30971 3.33334 10 3.33334C10.6904 3.33334 11.25 3.89298 11.25 4.58334ZM15.4167 5.83334C16.107 5.83334 16.6667 5.27369 16.6667 4.58334C16.6667 3.89298 16.107 3.33334 15.4167 3.33334C14.7264 3.33334 14.1667 3.89298 14.1667 4.58334C14.1667 5.27369 14.7264 5.83334 15.4167 5.83334Z" fill="#151515"/>
</svg>
