<svg width="36" height="36" viewBox="0 0 36 36" fill="none" xmlns="http://www.w3.org/2000/svg">
<rect width="36" height="36" rx="6" fill="#2F47F0"/>
<rect width="36" height="36" rx="6" fill="url(#paint0_linear_44_14083)"/>
<rect width="36" height="36" rx="6" fill="url(#paint1_linear_44_14083)"/>
<path fill-rule="evenodd" clip-rule="evenodd" d="M17.845 25.6362C16.3376 25.6362 15.6371 25.4152 14.4195 24.5311C13.6493 25.5257 11.2103 26.3029 11.104 24.9731C11.104 23.9749 10.8839 23.1314 10.6345 22.2105C10.3374 21.0759 10 19.8125 10 17.9818C10 13.6094 13.5723 10.32 17.8047 10.32C22.0408 10.32 25.36 13.7715 25.36 18.0223C25.3742 22.2074 22.012 25.6138 17.845 25.6362ZM17.9074 14.0993C15.8462 13.9925 14.2398 15.4254 13.884 17.6724C13.5906 19.5325 14.1114 21.7979 14.5552 21.9158C14.7679 21.9674 15.3034 21.5327 15.6371 21.1975C16.189 21.5804 16.8316 21.8104 17.5003 21.8642C19.636 21.9674 21.4609 20.3344 21.6043 18.1917C21.6878 16.0445 20.0434 14.2259 17.9074 14.103L17.9074 14.0993Z" fill="white"/>
<defs>
<linearGradient id="paint0_linear_44_14083" x1="36" y1="18" x2="12.2589" y2="17.5832" gradientUnits="userSpaceOnUse">
<stop stop-color="#A34EDE"/>
<stop offset="1" stop-color="#A34EDE" stop-opacity="0"/>
</linearGradient>
<linearGradient id="paint1_linear_44_14083" x1="15.6505" y1="15.0632" x2="2.36842" y2="32.5516" gradientUnits="userSpaceOnUse">
<stop stop-color="#44C4FD" stop-opacity="0"/>
<stop offset="1" stop-color="#44C4FD"/>
</linearGradient>
</defs>
</svg>
